Coordinates
version=1
nRows=25
nColumns=33
inDegrees=yes

Units are S.I. units (second, meters, Newtons, ...)
Angles are in degrees.

endheader
time	ground_thorax_rot_x	ground_thorax_rot_y	ground_thorax_rot_z	ground_thorax_tx	ground_thorax_ty	ground_thorax_tz	clav_prot_r	clav_elev_r	scapula_abduction_r	scapula_elevation_r	scapula_upward_rot_r	scapula_winging_r	shoulder_elv_r	plane_of_elev_r	axial_rot_r	elbow_flexion_r	pro_sup_r	wrist_flex_r	wrist_dev_r	clav_prot_l	clav_elev_l	scapula_abduction_l	scapula_elevation_l	scapula_upward_rot_l	scapula_winging_l	shoulder_elv_l	plane_of_elev_l	axial_rot_l	elbow_flexion_l	pro_sup_l	wrist_flex_l	wrist_dev_l	
5.8200	37.920837	-2.490910	6.225029	-62.453690	804.640977	5.615045	18.863159	38.354418	44.999424	44.945749	-42.901761	-2592.299059	-2265.424686	143.757576	180.000000	730.989316	39.835195	20.643398	13.889460	6.086981	-45.000000	-44.999961	45.000000	-17.581962	4769.364454	-4252.064418	19.980371	-39.237968	1085.941935	-344.200651	13.872540	-19.077929	
5.8300	38.047207	-2.344504	6.423162	-60.884905	802.633581	6.013135	18.711546	38.397594	44.998968	44.862880	-42.967151	-2592.190554	-2265.647058	143.794747	180.000000	730.667282	39.919602	20.675258	14.025368	6.197984	-45.000000	-44.999931	45.000000	-18.060584	4769.129429	-4252.254763	20.082034	-39.086405	1085.726335	-344.266328	13.730416	-18.915549	
5.8400	38.163375	-2.189777	6.634846	-59.458902	800.721391	6.392266	18.485163	38.433614	44.998149	44.770321	-43.053485	-2592.093419	-2265.870388	143.849943	180.000000	730.345032	40.038785	20.719192	14.171703	6.314535	-45.000000	-44.999876	45.000000	-18.573311	4768.916289	-4252.414817	20.190972	-38.983108	1085.522646	-344.312578	13.553793	-18.760731	
5.8500	38.272661	-2.212306	6.664487	-58.332153	799.013679	6.733096	18.389843	38.462385	44.996692	44.646616	-42.939690	-2592.019162	-2266.057165	143.911226	180.000000	730.060686	40.183610	20.734782	14.290496	6.308365	-45.000000	-44.999778	45.000000	-18.695779	4768.723322	-4252.544794	20.218197	-38.884009	1085.354225	-344.308676	13.419870	-18.659308	
5.8600	38.371009	-2.286179	6.653977	-57.538377	797.519385	7.030094	18.357292	38.463562	44.994055	44.524468	-42.831482	-2591.955954	-2266.209147	143.976420	180.000000	729.812803	40.381415	20.735199	14.375130	6.251916	-45.000000	-44.999602	45.000000	-18.688846	4768.574532	-4252.643237	20.205137	-38.812597	1085.215827	-344.259774	13.295966	-18.596872	
5.8700	38.459369	-2.414288	6.600713	-57.131435	796.257803	7.275200	18.361677	38.459484	44.989403	44.409289	-42.731350	-2591.908411	-2266.326007	144.039926	180.000000	729.602830	40.648613	20.729078	14.432571	6.162512	-45.000000	-44.999288	45.000000	-18.568519	4768.469771	-4252.706357	20.157218	-38.739938	1085.106972	-344.176793	13.173967	-18.569618	
5.8800	38.539381	-2.518611	6.592014	-57.130427	795.217753	7.465055	18.390870	38.430541	44.980873	44.330028	-42.766037	-2591.867584	-2266.409842	144.097439	180.000000	729.437628	41.001694	20.725705	14.455690	6.085965	-45.000000	-44.998725	45.000000	-18.494658	4768.425055	-4252.746461	20.101529	-38.670785	1085.020948	-344.070885	13.041211	-18.567062	
5.8900	38.615953	-2.617096	6.600464	-57.536152	794.373092	7.599528	18.388241	38.421448	44.966142	44.286825	-42.894657	-2591.840836	-2266.467329	144.140270	180.000000	729.308843	41.448459	20.742249	14.469092	6.042015	-45.000000	-44.997713	45.000000	-18.472853	4768.420083	-4252.763910	20.047245	-38.565290	1084.950518	-343.968266	12.887491	-18.575758	
5.9000	38.695145	-2.699264	6.636204	-58.346193	793.696755	7.680842	18.377803	38.413398	44.938224	44.288329	-43.109407	-2591.827014	-2266.507751	144.179233	180.000000	729.223859	41.985026	20.786420	14.475628	6.036011	-45.000000	-44.995910	45.000000	-18.538694	4768.455372	-4252.772726	20.002857	-38.443978	1084.898540	-343.876304	12.718356	-18.594124	
5.9100	38.770940	-2.785319	6.668892	-59.554326	793.162616	7.713318	18.357012	38.414106	44.892489	44.315565	-43.368145	-2591.828146	-2266.528423	144.205327	180.000000	729.161708	42.602124	20.851756	14.477892	6.061874	-45.000000	-44.992657	45.000000	-18.644395	4768.525579	-4252.773437	19.966544	-38.305754	1084.852463	-343.807783	12.544537	-18.616116	
5.9200	38.836126	-2.811687	6.764892	-61.151833	792.746867	7.703194	18.359144	38.370406	44.798629	44.366789	-43.697730	-2591.821855	-2266.538895	144.248475	180.000000	729.119377	43.284135	20.940720	14.470097	6.142762	-45.000000	-44.986892	45.000000	-18.909214	4768.650502	-4252.768746	19.961288	-38.219790	1084.819161	-343.759804	12.368217	-18.644215	
5.9300	38.887227	-2.827670	6.865120	-63.127431	792.428362	7.657613	18.346993	38.331407	44.663815	44.429279	-44.051565	-2591.811664	-2266.534544	144.289273	180.000000	729.085922	44.006726	21.040277	14.452728	6.256360	-45.000000	-44.976391	45.000000	-19.228354	4768.809479	-4252.749320	19.964278	-38.147822	1084.792933	-343.747170	12.202083	-18.671550	
5.9400	38.926131	-2.775595	7.025310	-65.468361	792.188740	7.583677	18.341115	38.254587	44.430900	44.508384	-44.385503	-2591.771722	-2266.537953	144.371524	180.000000	729.051641	44.741543	21.159472	14.431504	6.425611	-45.000000	-44.958069	45.000000	-19.716390	4769.000885	-4252.717161	19.989236	-38.165814	1084.781275	-343.761780	12.049157	-18.701057	
5.9500	38.953573	-2.681311	7.215138	-68.160031	792.012598	7.487532	18.316923	38.172246	44.103362	44.600734	-44.684182	-2591.708076	-2266.542965	144.470866	180.000000	729.003234	45.462150	21.280406	14.400781	6.633498	-45.000000	-44.923887	45.000000	-20.298566	4769.203261	-4252.672087	20.011971	-38.242160	1084.768473	-343.812296	11.921126	-18.724340	
5.9600	38.974145	-2.534767	7.446659	-71.186690	791.887848	7.374019	18.275708	38.063400	43.662145	44.701709	-44.892413	-2591.620178	-2266.568079	144.614258	180.000000	728.937335	46.144556	21.413409	14.374577	6.877740	-45.000000	-44.866458	45.000000	-21.010729	4769.408896	-4252.616468	20.037032	-38.414473	1084.759817	-343.892640	11.817298	-18.743883	
5.9700	38.993404	-2.418123	7.646470	-74.531485	791.806204	7.246581	18.164761	37.995873	43.163850	44.799107	-45.000000	-2591.542734	-2266.597405	144.763384	180.000000	728.857415	46.771061	21.547435	14.364644	7.121793	-45.000000	-44.752976	45.000000	-21.725127	4769.580216	-4252.541534	20.030167	-38.625757	1084.753625	-344.011775	11.733580	-18.751819	
5.9800	39.014612	-2.332017	7.817265	-78.177056	791.763084	7.107297	17.998138	37.944872	42.619202	44.882301	-45.000000	-2591.493161	-2266.636750	144.921021	180.000000	728.761705	47.330422	21.685563	14.376722	7.332990	-45.000000	-44.583581	45.000000	-22.444040	4769.720593	-4252.453992	19.993767	-38.917772	1084.750780	-344.154930	11.666775	-18.750672	
5.9900	39.028550	-2.228507	8.034754	-82.105364	791.757663	6.957008	17.784051	37.907595	42.053540	44.944616	-45.000000	-2591.477995	-2266.672472	145.079297	180.000000	728.643491	47.821143	21.817033	14.407240	7.538452	-45.000000	-44.271341	45.000000	-23.321651	4769.799908	-4252.326803	19.937719	-39.286997	1084.751838	-344.322841	11.601325	-18.736079	
6.0000	39.033555	-2.101015	8.304298	-86.297576	791.792331	6.795534	17.540323	37.862209	41.478215	44.982122	-45.000000	-2591.500136	-2266.714162	145.250272	180.000000	728.502965	48.246707	21.946742	14.455085	7.720727	-45.000000	-43.822378	45.000000	-24.374741	4769.830040	-4252.158986	19.876663	-39.727586	1084.761374	-344.505337	11.541120	-18.714445	
6.0100	39.028386	-1.950009	8.628782	-90.734073	791.872307	6.621860	17.264607	37.828921	40.899411	44.996693	-45.000000	-2591.557078	-2266.760218	145.438241	180.000000	728.341681	48.616170	22.079052	14.529745	7.904117	-45.000000	-43.219855	45.000000	-25.642021	4769.795891	-4251.936052	19.816841	-40.203888	1084.788199	-344.698853	11.479188	-18.688604	
6.0200	39.015342	-1.786366	8.972654	-95.394128	792.005095	6.434372	16.992804	37.780046	40.318180	45.000000	-45.000000	-2591.642856	-2266.814089	145.633392	180.000000	728.165605	48.943901	22.208846	14.607924	8.057437	-45.000000	-42.563407	45.000000	-26.991478	4769.753393	-4251.696216	19.755459	-40.710678	1084.818747	-344.875500	11.438494	-18.666976	
6.0300	38.991542	-1.585627	9.358534	-100.255871	792.200414	6.231046	16.738364	37.711180	39.713365	45.000000	-45.000000	-2591.733323	-2266.870843	145.850268	180.000000	727.973974	49.248840	22.338790	14.691425	8.220174	-45.000000	-41.855324	45.000000	-28.491588	4769.701324	-4251.433259	19.709899	-41.220549	1084.857489	-345.025211	11.417345	-18.654423	
6.0400	38.960428	-1.409077	9.705845	-105.295864	792.469868	6.009750	16.501047	37.629576	39.125604	45.000000	-45.000000	-2591.837651	-2266.924359	146.064577	180.000000	727.781091	49.549859	22.462607	14.763424	8.356414	-45.000000	-41.193914	45.000000	-29.909920	4769.697098	-4251.186679	19.660241	-41.705774	1084.894417	-345.124209	11.429389	-18.656060	
6.0500	38.921159	-1.256817	10.014909	-110.489578	792.827263	5.768479	16.278981	37.538547	38.548420	45.000000	-45.000000	-2591.940588	-2266.965592	146.279629	180.000000	727.590757	49.869287	22.580416	14.824974	8.461785	-45.000000	-40.574573	45.000000	-31.290828	4769.728449	-4250.946326	19.620403	-42.109352	1084.936180	-345.170151	11.475327	-18.674896	
6.0600	38.877890	-1.162013	10.244003	-115.811464	793.288178	5.505597	16.054871	37.457596	38.005581	45.000000	-45.000000	-2592.059826	-2266.996774	146.471495	180.000000	727.410462	50.220496	22.694702	14.873285	8.532019	-45.000000	-40.035611	45.000000	-32.495497	4769.818014	-4250.731445	19.564017	-42.488381	1084.980603	-345.136969	11.537199	-18.709990	
